<mxfile host="app.diagrams.net" agent="Mozilla/5.0 (Macintosh; Intel Mac OS X 10_15_7) AppleWebKit/605.1.15 (KHTML, like Gecko) Version/18.3.1 Safari/605.1.15" version="26.1.3">
  <diagram name="Page-1" id="P9VGByaE1s1Ts3q40vK-">
    <mxGraphModel dx="857" dy="1670" grid="1" gridSize="10" guides="1" tooltips="1" connect="1" arrows="1" fold="1" page="1" pageScale="1" pageWidth="850" pageHeight="1100" math="0" shadow="0">
      <root>
        <mxCell id="0" />
        <mxCell id="1" parent="0" />
        <mxCell id="cMjAnOgMmpiW763B0mKw-20" value="Axepool" style="rounded=0;whiteSpace=wrap;html=1;align=left;verticalAlign=top;" vertex="1" parent="1">
          <mxGeometry x="10" y="160" width="530" height="270" as="geometry" />
        </mxCell>
        <mxCell id="cMjAnOgMmpiW763B0mKw-13" style="edgeStyle=orthogonalEdgeStyle;rounded=0;orthogonalLoop=1;jettySize=auto;html=1;exitX=1;exitY=0.5;exitDx=0;exitDy=0;entryX=0;entryY=0.5;entryDx=0;entryDy=0;startArrow=classic;startFill=1;endArrow=classic;endFill=1;" edge="1" parent="1" source="cMjAnOgMmpiW763B0mKw-1" target="cMjAnOgMmpiW763B0mKw-2">
          <mxGeometry relative="1" as="geometry" />
        </mxCell>
        <mxCell id="cMjAnOgMmpiW763B0mKw-14" value="sv1 proxy" style="edgeLabel;html=1;align=center;verticalAlign=middle;resizable=0;points=[];" vertex="1" connectable="0" parent="cMjAnOgMmpiW763B0mKw-13">
          <mxGeometry x="0.12" y="3" relative="1" as="geometry">
            <mxPoint as="offset" />
          </mxGeometry>
        </mxCell>
        <mxCell id="cMjAnOgMmpiW763B0mKw-16" style="edgeStyle=orthogonalEdgeStyle;rounded=0;orthogonalLoop=1;jettySize=auto;html=1;exitX=0.5;exitY=0;exitDx=0;exitDy=0;entryX=0.5;entryY=1;entryDx=0;entryDy=0;startArrow=classic;startFill=1;" edge="1" parent="1" source="cMjAnOgMmpiW763B0mKw-1" target="cMjAnOgMmpiW763B0mKw-15">
          <mxGeometry relative="1" as="geometry" />
        </mxCell>
        <mxCell id="cMjAnOgMmpiW763B0mKw-17" value="Stratum npub.worker" style="edgeLabel;html=1;align=center;verticalAlign=middle;resizable=0;points=[];" vertex="1" connectable="0" parent="cMjAnOgMmpiW763B0mKw-16">
          <mxGeometry x="0.3571" y="1" relative="1" as="geometry">
            <mxPoint as="offset" />
          </mxGeometry>
        </mxCell>
        <mxCell id="cMjAnOgMmpiW763B0mKw-21" style="edgeStyle=orthogonalEdgeStyle;rounded=0;orthogonalLoop=1;jettySize=auto;html=1;exitX=0.5;exitY=1;exitDx=0;exitDy=0;entryX=0;entryY=0.5;entryDx=0;entryDy=0;" edge="1" parent="1" source="cMjAnOgMmpiW763B0mKw-1" target="cMjAnOgMmpiW763B0mKw-5">
          <mxGeometry relative="1" as="geometry" />
        </mxCell>
        <mxCell id="cMjAnOgMmpiW763B0mKw-22" value="npub hashrate" style="edgeLabel;html=1;align=center;verticalAlign=middle;resizable=0;points=[];" vertex="1" connectable="0" parent="cMjAnOgMmpiW763B0mKw-21">
          <mxGeometry x="-0.0113" relative="1" as="geometry">
            <mxPoint as="offset" />
          </mxGeometry>
        </mxCell>
        <mxCell id="cMjAnOgMmpiW763B0mKw-1" value="stratum daemon" style="rounded=0;whiteSpace=wrap;html=1;align=left;verticalAlign=top;" vertex="1" parent="1">
          <mxGeometry x="80" y="180" width="160" height="70" as="geometry" />
        </mxCell>
        <mxCell id="cMjAnOgMmpiW763B0mKw-11" style="edgeStyle=orthogonalEdgeStyle;rounded=0;orthogonalLoop=1;jettySize=auto;html=1;exitX=0.5;exitY=0;exitDx=0;exitDy=0;entryX=0.5;entryY=1;entryDx=0;entryDy=0;" edge="1" parent="1">
          <mxGeometry relative="1" as="geometry">
            <mxPoint x="370" y="180" as="sourcePoint" />
            <mxPoint x="360" y="40" as="targetPoint" />
          </mxGeometry>
        </mxCell>
        <mxCell id="cMjAnOgMmpiW763B0mKw-12" value="stratum username.worker" style="edgeLabel;html=1;align=center;verticalAlign=middle;resizable=0;points=[];" vertex="1" connectable="0" parent="cMjAnOgMmpiW763B0mKw-11">
          <mxGeometry x="0.2462" y="2" relative="1" as="geometry">
            <mxPoint as="offset" />
          </mxGeometry>
        </mxCell>
        <mxCell id="cMjAnOgMmpiW763B0mKw-28" style="edgeStyle=orthogonalEdgeStyle;rounded=0;orthogonalLoop=1;jettySize=auto;html=1;exitX=0.75;exitY=0;exitDx=0;exitDy=0;entryX=0.75;entryY=1;entryDx=0;entryDy=0;startArrow=classic;startFill=1;endArrow=none;" edge="1" parent="1" source="cMjAnOgMmpiW763B0mKw-2" target="cMjAnOgMmpiW763B0mKw-8">
          <mxGeometry relative="1" as="geometry">
            <Array as="points">
              <mxPoint x="458" y="90" />
              <mxPoint x="420" y="90" />
            </Array>
          </mxGeometry>
        </mxCell>
        <mxCell id="cMjAnOgMmpiW763B0mKw-29" value="Payouts" style="edgeLabel;html=1;align=center;verticalAlign=middle;resizable=0;points=[];" vertex="1" connectable="0" parent="cMjAnOgMmpiW763B0mKw-28">
          <mxGeometry x="0.1188" relative="1" as="geometry">
            <mxPoint as="offset" />
          </mxGeometry>
        </mxCell>
        <mxCell id="cMjAnOgMmpiW763B0mKw-30" style="edgeStyle=orthogonalEdgeStyle;rounded=0;orthogonalLoop=1;jettySize=auto;html=1;exitX=0.5;exitY=1;exitDx=0;exitDy=0;entryX=0.5;entryY=0;entryDx=0;entryDy=0;" edge="1" parent="1" source="cMjAnOgMmpiW763B0mKw-2" target="cMjAnOgMmpiW763B0mKw-5">
          <mxGeometry relative="1" as="geometry" />
        </mxCell>
        <mxCell id="cMjAnOgMmpiW763B0mKw-31" value="Payout info" style="edgeLabel;html=1;align=center;verticalAlign=middle;resizable=0;points=[];" vertex="1" connectable="0" parent="cMjAnOgMmpiW763B0mKw-30">
          <mxGeometry x="0.04" y="1" relative="1" as="geometry">
            <mxPoint as="offset" />
          </mxGeometry>
        </mxCell>
        <mxCell id="cMjAnOgMmpiW763B0mKw-2" value="upstream daemon" style="rounded=0;whiteSpace=wrap;html=1;verticalAlign=top;align=left;" vertex="1" parent="1">
          <mxGeometry x="330" y="180" width="170" height="70" as="geometry" />
        </mxCell>
        <mxCell id="cMjAnOgMmpiW763B0mKw-18" style="edgeStyle=orthogonalEdgeStyle;rounded=0;orthogonalLoop=1;jettySize=auto;html=1;exitX=1;exitY=0.5;exitDx=0;exitDy=0;entryX=0.5;entryY=1;entryDx=0;entryDy=0;startArrow=classic;startFill=1;" edge="1" parent="1" source="cMjAnOgMmpiW763B0mKw-5" target="cMjAnOgMmpiW763B0mKw-3">
          <mxGeometry relative="1" as="geometry" />
        </mxCell>
        <mxCell id="cMjAnOgMmpiW763B0mKw-19" value="List invoice polling" style="edgeLabel;html=1;align=center;verticalAlign=middle;resizable=0;points=[];" vertex="1" connectable="0" parent="cMjAnOgMmpiW763B0mKw-18">
          <mxGeometry x="0.0889" y="1" relative="1" as="geometry">
            <mxPoint as="offset" />
          </mxGeometry>
        </mxCell>
        <mxCell id="cMjAnOgMmpiW763B0mKw-24" style="edgeStyle=orthogonalEdgeStyle;rounded=0;orthogonalLoop=1;jettySize=auto;html=1;exitX=0.5;exitY=1;exitDx=0;exitDy=0;entryX=0.5;entryY=0;entryDx=0;entryDy=0;" edge="1" parent="1" source="cMjAnOgMmpiW763B0mKw-5" target="cMjAnOgMmpiW763B0mKw-23">
          <mxGeometry relative="1" as="geometry" />
        </mxCell>
        <mxCell id="cMjAnOgMmpiW763B0mKw-25" value="mint P2PK eCash" style="edgeLabel;html=1;align=center;verticalAlign=middle;resizable=0;points=[];" vertex="1" connectable="0" parent="cMjAnOgMmpiW763B0mKw-24">
          <mxGeometry x="-0.5818" y="-2" relative="1" as="geometry">
            <mxPoint x="30" as="offset" />
          </mxGeometry>
        </mxCell>
        <mxCell id="cMjAnOgMmpiW763B0mKw-7" value="" style="group" vertex="1" connectable="0" parent="1">
          <mxGeometry x="560" y="210" width="170" height="110" as="geometry" />
        </mxCell>
        <mxCell id="cMjAnOgMmpiW763B0mKw-3" value="CLN &amp;nbsp;" style="rounded=0;whiteSpace=wrap;html=1;align=left;verticalAlign=top;" vertex="1" parent="cMjAnOgMmpiW763B0mKw-7">
          <mxGeometry width="170" height="110" as="geometry" />
        </mxCell>
        <mxCell id="cMjAnOgMmpiW763B0mKw-8" value="OCEAN" style="rounded=0;whiteSpace=wrap;html=1;" vertex="1" parent="1">
          <mxGeometry x="330" y="-20" width="120" height="60" as="geometry" />
        </mxCell>
        <mxCell id="cMjAnOgMmpiW763B0mKw-9" style="edgeStyle=orthogonalEdgeStyle;rounded=0;orthogonalLoop=1;jettySize=auto;html=1;exitX=0.5;exitY=0;exitDx=0;exitDy=0;entryX=1;entryY=0.5;entryDx=0;entryDy=0;" edge="1" parent="1" source="cMjAnOgMmpiW763B0mKw-3" target="cMjAnOgMmpiW763B0mKw-8">
          <mxGeometry relative="1" as="geometry">
            <Array as="points">
              <mxPoint x="600" y="160" />
              <mxPoint x="600" y="10" />
            </Array>
          </mxGeometry>
        </mxCell>
        <mxCell id="cMjAnOgMmpiW763B0mKw-10" value="Bolt12 offer" style="edgeLabel;html=1;align=center;verticalAlign=middle;resizable=0;points=[];" vertex="1" connectable="0" parent="cMjAnOgMmpiW763B0mKw-9">
          <mxGeometry x="-0.2421" relative="1" as="geometry">
            <mxPoint as="offset" />
          </mxGeometry>
        </mxCell>
        <mxCell id="cMjAnOgMmpiW763B0mKw-15" value="BITAXE" style="rounded=0;whiteSpace=wrap;html=1;" vertex="1" parent="1">
          <mxGeometry x="80" y="30" width="120" height="60" as="geometry" />
        </mxCell>
        <mxCell id="cMjAnOgMmpiW763B0mKw-23" value="CASHU" style="rounded=0;whiteSpace=wrap;html=1;" vertex="1" parent="1">
          <mxGeometry x="570" y="470" width="160" height="60" as="geometry" />
        </mxCell>
        <mxCell id="cMjAnOgMmpiW763B0mKw-32" value="" style="group" vertex="1" connectable="0" parent="1">
          <mxGeometry x="190" y="300" width="320" height="110" as="geometry" />
        </mxCell>
        <mxCell id="cMjAnOgMmpiW763B0mKw-5" value="axepool daemon" style="rounded=0;whiteSpace=wrap;html=1;align=left;verticalAlign=top;" vertex="1" parent="cMjAnOgMmpiW763B0mKw-32">
          <mxGeometry width="320" height="110" as="geometry" />
        </mxCell>
        <mxCell id="cMjAnOgMmpiW763B0mKw-26" value="fn on_invoice _paid()&amp;nbsp;&lt;div&gt;fn calculate_payout(npub_hashrate, invoice, payout)&lt;/div&gt;&lt;div&gt;&lt;br&gt;&lt;/div&gt;" style="text;html=1;align=left;verticalAlign=top;whiteSpace=wrap;rounded=0;" vertex="1" parent="cMjAnOgMmpiW763B0mKw-32">
          <mxGeometry x="10" y="30" width="290" height="70" as="geometry" />
        </mxCell>
        <mxCell id="cMjAnOgMmpiW763B0mKw-33" style="edgeStyle=orthogonalEdgeStyle;rounded=0;orthogonalLoop=1;jettySize=auto;html=1;exitX=0.75;exitY=1;exitDx=0;exitDy=0;entryX=0.784;entryY=0.023;entryDx=0;entryDy=0;entryPerimeter=0;startArrow=classic;startFill=1;" edge="1" parent="1" source="cMjAnOgMmpiW763B0mKw-3" target="cMjAnOgMmpiW763B0mKw-23">
          <mxGeometry relative="1" as="geometry">
            <Array as="points">
              <mxPoint x="687" y="395" />
              <mxPoint x="695" y="395" />
            </Array>
          </mxGeometry>
        </mxCell>
      </root>
    </mxGraphModel>
  </diagram>
</mxfile>
